<?xml version="1.0" standalone="no"?>
<!DOCTYPE svg PUBLIC "-//W3C//DTD SVG 20010904//EN"
 "http://www.w3.org/TR/2001/REC-SVG-20010904/DTD/svg10.dtd">
<svg version="1.0" xmlns="http://www.w3.org/2000/svg"
 width="836.000000pt" height="836.000000pt" viewBox="0 0 836.000000 836.000000"
 preserveAspectRatio="xMidYMid meet">
<metadata>
Created by potrace 1.11, written by Peter Selinger 2001-2013
</metadata>
<g transform="translate(0.000000,836.000000) scale(0.100000,-0.100000)"
fill="#000000" stroke="none">
<path d="M2040 6437 l0 -47 -36 0 c-100 0 -354 -54 -514 -108 -686 -236 -1225
-831 -1416 -1562 -84 -323 -96 -696 -33 -1027 183 -956 939 -1686 1872 -1808
444 -57 928 42 1319 271 l77 45 368 -156 c406 -172 457 -187 567 -168 42 7
190 64 435 168 l371 157 60 -37 c33 -20 115 -62 182 -94 486 -231 1030 -265
1543 -96 1016 333 1653 1388 1499 2486 -76 546 -354 1060 -765 1413 -334 287
-767 476 -1171 512 l-78 7 0 43 c0 42 -1 44 -30 44 -16 0 -52 -5 -81 -11 -40
-9 -53 -8 -59 1 -18 30 -353 -16 -565 -76 -353 -102 -629 -264 -885 -523 -188
-188 -317 -370 -460 -643 l-66 -126 -42 81 c-117 228 -268 433 -457 623 -196
196 -377 328 -600 433 -266 127 -627 219 -925 237 l-110 7 0 -46z m310 -18
c787 -111 1363 -524 1758 -1260 l52 -96 0 -141 c0 -135 1 -142 20 -142 19 0
20 7 20 147 l0 146 64 128 c238 471 547 802 937 1004 264 136 514 207 852 241
l67 6 0 -1844 0 -1845 -142 -7 c-730 -33 -1305 -219 -1695 -548 l-83 -69 -2
763 c-3 717 -4 763 -20 766 -17 3 -18 -39 -18 -768 l0 -771 -72 59 c-324 264
-759 434 -1338 521 -149 22 -452 51 -545 51 -33 0 -77 3 -97 6 l-38 7 0 1839
0 1840 73 -7 c39 -3 133 -15 207 -26z m3930 -1809 l0 -1840 -65 0 -65 0 0
1825 0 1825 23 5 c12 3 40 9 62 14 22 5 41 9 43 10 1 1 2 -827 2 -1839z
m-4506 1646 c-164 -78 -306 -189 -431 -338 -91 -108 -174 -228 -167 -240 12
-19 159 -110 241 -149 83 -40 277 -109 305 -109 11 0 22 36 43 143 57 295 139
541 223 668 26 38 48 65 50 59 2 -6 -7 -28 -21 -49 -73 -110 -135 -271 -188
-486 -34 -137 -71 -336 -65 -343 9 -8 131 -31 204 -38 45 -4 72 -11 72 -19 0
-12 -142 2 -238 23 -32 8 -44 7 -47 -1 -17 -47 -73 -633 -62 -643 9 -9 219
-33 290 -34 44 0 57 -3 57 -15 0 -19 -25 -19 -206 1 -80 9 -146 15 -148 13 -2
-2 -7 -127 -11 -276 l-7 -273 100 0 100 0 6 33 c12 61 53 133 101 175 26 23
52 42 56 42 5 0 9 -122 9 -271 0 -213 -3 -269 -12 -263 -76 42 -130 116 -149
200 l-12 54 -100 0 -99 0 7 -272 c4 -150 10 -276 14 -279 3 -3 56 -1 116 6
202 23 235 24 235 10 0 -9 -18 -15 -52 -19 -29 -2 -107 -10 -173 -16 -65 -6
-121 -13 -124 -15 -12 -13 53 -632 68 -647 4 -4 40 -2 81 6 117 22 200 29 200
18 0 -6 -24 -13 -52 -17 -29 -3 -93 -13 -141 -22 l-88 -15 6 -42 c4 -22 22
-115 42 -205 62 -294 149 -520 238 -618 33 -38 40 -50 25 -46 -95 25 -243 403
-315 806 -10 53 -21 97 -26 97 -4 0 -55 -16 -113 -35 -132 -43 -268 -108 -369
-175 l-78 -52 23 -36 c132 -219 353 -428 563 -533 82 -42 93 -50 60 -44 -47 8
-142 58 -235 123 -124 87 -329 313 -421 462 -7 12 -31 -7 -115 -94 -58 -59
-107 -106 -110 -104 -7 8 66 95 139 167 l65 63 -68 132 c-77 149 -145 315
-187 458 -15 54 -32 98 -36 98 -31 0 -249 -129 -374 -221 -51 -38 -95 -64 -98
-59 -12 19 250 197 402 274 l71 35 -14 58 c-43 181 -84 518 -84 684 l0 69
-340 0 c-217 0 -340 4 -340 10 0 6 124 11 337 12 l338 3 7 140 c9 180 32 368
63 521 14 67 27 127 30 135 3 10 -25 29 -90 63 -158 82 -397 247 -376 261 6 3
39 -16 73 -43 136 -106 395 -254 402 -230 111 337 160 460 241 602 l44 77 -83
82 c-89 89 -131 143 -118 151 5 3 33 -25 64 -63 56 -68 144 -148 154 -139 2 3
28 39 57 81 139 202 313 365 491 463 63 34 109 51 146 53 8 0 -26 -19 -76 -43z
m4866 -3 c184 -99 379 -283 519 -490 23 -35 44 -63 47 -63 14 0 99 80 150 142
32 39 60 65 62 59 5 -15 -50 -81 -133 -163 l-66 -64 65 -125 c75 -144 129
-276 181 -444 21 -66 39 -122 41 -124 10 -12 296 161 407 246 63 49 94 50 37
1 -60 -51 -230 -161 -335 -218 -55 -29 -101 -54 -102 -54 -1 -1 11 -65 27
-142 31 -154 55 -361 66 -551 l6 -123 334 0 c216 0 334 -4 334 -10 0 -6 -118
-10 -335 -10 l-335 0 0 -32 c-1 -199 -51 -591 -96 -755 -5 -19 3 -26 58 -54
156 -79 408 -250 408 -277 0 -10 -10 -7 -32 12 -117 93 -428 280 -442 265 -4
-3 -18 -45 -32 -93 -46 -161 -142 -390 -224 -538 l-32 -56 75 -71 c77 -74 135
-147 124 -158 -4 -3 -17 7 -29 23 -34 44 -151 165 -169 175 -13 7 -26 -6 -62
-60 -167 -251 -455 -496 -617 -526 -26 -4 -12 5 50 37 206 104 356 236 513
450 56 75 84 125 76 131 -58 49 -231 144 -339 188 -66 26 -212 70 -217 65 -2
-2 -19 -79 -38 -172 -36 -179 -87 -358 -138 -488 -38 -97 -123 -226 -157 -238
-24 -9 -23 -8 7 24 72 75 154 252 209 453 38 141 93 419 85 428 -8 8 -126 31
-213 42 -32 3 -58 11 -58 16 0 11 86 4 199 -17 52 -10 77 -11 81 -3 13 20 77
635 68 645 -2 2 -58 8 -123 14 -229 21 -225 21 -225 36 0 11 9 13 38 9 20 -2
91 -9 157 -15 66 -6 127 -13 137 -16 20 -6 25 51 32 349 l4 207 -97 0 -98 0
-12 -54 c-15 -67 -62 -139 -115 -178 l-41 -29 -3 267 c-1 147 0 269 3 272 8 9
76 -49 106 -91 17 -23 37 -68 46 -99 l16 -58 98 0 97 0 -4 213 c-6 287 -11
337 -32 337 -9 0 -73 -7 -142 -15 -161 -19 -190 -19 -190 0 0 12 13 15 58 15
66 1 280 25 288 33 9 9 -42 530 -62 628 -5 25 -7 26 -47 18 -102 -22 -237 -36
-237 -25 0 6 51 18 124 28 68 10 130 20 138 23 13 5 13 19 -3 111 -56 310
-137 563 -223 698 -44 69 -43 100 1 35 92 -134 185 -410 238 -704 21 -116 24
-125 40 -125 30 0 207 64 303 110 119 57 242 135 242 154 0 31 -134 200 -250
316 -135 136 -235 208 -367 266 -74 32 -76 34 -33 28 25 -3 74 -22 110 -41z
m-4104 -3758 c-13 -66 -88 -289 -121 -360 -43 -89 -108 -181 -135 -188 -16 -4
-11 5 19 39 73 83 148 253 201 457 13 48 27 87 33 87 5 0 6 -15 3 -35z m3329
-86 c61 -211 123 -345 197 -425 31 -33 35 -41 18 -37 -47 12 -132 155 -190
318 -44 126 -81 267 -68 263 5 -2 25 -56 43 -119z m-2875 -109 c-11 -16 -55
-60 -96 -97 -130 -117 -284 -213 -364 -228 -26 -4 -13 5 50 37 47 24 110 60
141 80 72 48 196 154 234 200 37 45 66 52 35 8z m2459 -53 c107 -103 209 -176
326 -234 76 -37 84 -43 50 -38 -47 7 -143 58 -234 122 -77 56 -262 232 -242
233 8 0 53 -37 100 -83z"/>
<path d="M4044 4737 c-84 -41 -159 -151 -167 -249 -2 -28 1 -32 48 -48 98 -34
90 -35 104 12 38 129 146 166 225 78 33 -37 55 -92 70 -177 l6 -33 -110 0
-110 0 0 -90 0 -90 109 0 108 0 -8 -52 c-12 -77 -35 -131 -70 -164 -41 -40
-114 -42 -154 -4 -35 32 -63 87 -71 139 -4 23 -11 41 -15 41 -5 0 -39 -13 -75
-30 l-66 -30 7 -37 c34 -187 138 -293 284 -293 151 0 249 97 303 298 29 110
29 335 -1 444 -37 142 -102 242 -183 284 -20 10 -63 19 -108 21 -64 3 -83 0
-126 -20z"/>
<path d="M5595 4736 c-94 -44 -167 -150 -201 -293 -23 -93 -23 -324 -1 -414
50 -206 162 -319 318 -319 135 0 214 52 279 183 49 98 69 200 69 342 0 254
-80 433 -224 501 -69 33 -170 33 -240 0z m179 -170 c99 -41 150 -210 126 -420
-11 -97 -32 -153 -74 -203 -79 -94 -215 -51 -267 85 -27 73 -37 244 -20 342
29 158 128 241 235 196z"/>
<path d="M2385 4738 c-3 -7 -4 -238 -3 -513 l3 -500 73 0 74 0 136 319 137
320 3 -323 2 -322 68 3 67 3 0 510 0 510 -71 3 -71 3 -134 -320 -134 -319 -5
317 -5 316 -68 3 c-48 2 -69 -1 -72 -10z"/>
<path d="M3085 4738 c-3 -7 -4 -238 -3 -513 l3 -500 67 -3 68 -3 2 367 3 367
59 -344 c33 -189 63 -354 68 -367 7 -21 13 -23 75 -20 l68 3 18 100 c10 55 40
224 66 375 l49 275 1 -378 1 -378 68 3 67 3 0 510 0 510 -110 0 -110 0 -61
-335 c-34 -184 -63 -330 -63 -324 -1 14 -98 541 -112 612 l-10 52 -105 0 c-74
0 -106 -4 -109 -12z"/>
<path d="M4590 4235 l0 -516 68 3 67 3 5 354 5 354 58 -339 c32 -186 61 -347
63 -356 4 -15 17 -18 74 -18 57 0 70 3 74 18 2 9 31 170 63 356 l58 339 5
-354 5 -354 68 -3 67 -3 0 516 0 515 -105 0 c-89 0 -107 -3 -112 -17 -4 -9
-32 -156 -63 -327 -32 -171 -60 -304 -63 -296 -4 8 -31 152 -62 319 -30 167
-58 307 -61 312 -3 5 -52 9 -110 9 l-104 0 0 -515z"/>
<path d="M1071 5498 c-76 -154 -191 -463 -191 -514 0 -41 361 -168 635 -223
77 -16 141 -27 143 -26 2 2 10 79 18 172 8 92 23 233 34 313 24 176 24 180 4
180 -32 0 -227 71 -313 114 -49 24 -122 65 -162 92 -41 27 -77 50 -81 52 -4 2
-43 -70 -87 -160z"/>
<path d="M866 4932 c-10 -17 -56 -259 -71 -380 -9 -68 -17 -187 -18 -265 l-2
-142 93 0 c50 0 244 1 430 3 l339 2 7 198 c3 108 9 234 13 278 l6 81 -94 18
c-190 35 -418 102 -602 179 -97 40 -94 39 -101 28z"/>
<path d="M773 3975 c4 -79 14 -197 22 -262 14 -111 62 -370 71 -384 2 -4 51
13 108 36 183 76 466 158 617 180 25 4 51 10 58 14 9 6 9 51 1 197 -5 104 -10
228 -10 277 l0 87 -437 0 -436 0 6 -145z"/>
<path d="M1505 3504 c-171 -37 -348 -90 -490 -147 -103 -41 -131 -56 -133 -73
-6 -40 99 -329 178 -489 43 -88 83 -166 88 -174 8 -11 24 -5 83 35 108 72 248
139 382 181 82 27 117 42 117 53 0 9 -9 78 -19 155 -11 77 -25 199 -31 270
-18 215 -18 215 -43 214 -12 0 -71 -11 -132 -25z"/>
<path d="M7130 5613 c-118 -81 -357 -189 -463 -208 -20 -4 -39 -10 -41 -14 -2
-3 5 -60 15 -126 10 -66 25 -208 34 -315 10 -107 19 -200 20 -206 6 -22 278
38 486 106 97 32 283 105 298 117 7 5 -58 216 -100 324 -38 97 -146 320 -171
351 -12 15 -19 12 -78 -29z"/>
<path d="M7430 4921 c-105 -56 -435 -157 -643 -197 l-88 -17 6 -236 c3 -130 8
-255 11 -278 l5 -43 340 -2 c186 -2 381 -3 432 -3 l92 0 -3 115 c-3 155 -19
308 -48 470 -42 228 -40 225 -104 191z"/>
<path d="M6716 4083 c-3 -21 -6 -148 -8 -282 l-3 -243 135 -28 c206 -42 420
-109 612 -194 l36 -16 22 92 c38 163 79 511 80 676 l0 32 -434 0 -434 0 -6
-37z"/>
<path d="M6690 3485 c0 -85 -45 -493 -65 -592 -4 -18 2 -23 48 -33 125 -29
342 -128 455 -206 35 -24 67 -44 71 -44 12 0 145 271 186 380 34 89 95 283 95
301 0 18 -221 104 -394 155 -114 33 -344 84 -380 84 -12 0 -16 -10 -16 -45z"/>
</g>
</svg>
